<mxfile host="app.diagrams.net" modified="2020-11-17T09:49:06.734Z" agent="5.0 (Macintosh; Intel Mac OS X 10_15_5) AppleWebKit/605.1.15 (KHTML, like Gecko) Version/13.1.1 Safari/605.1.15" etag="ofGRpjGigpwXDPEXyHZX" version="13.9.9" type="github">
  <diagram id="fycQSyhCZheVYzVLmbO5" name="Page-1">
    <mxGraphModel dx="1620" dy="1258" grid="1" gridSize="10" guides="1" tooltips="1" connect="1" arrows="1" fold="1" page="1" pageScale="1" pageWidth="827" pageHeight="1169" math="0" shadow="0">
      <root>
        <mxCell id="0" />
        <mxCell id="1" parent="0" />
        <mxCell id="EflzVE0-cOWdaxuLqOuZ-1" value="" style="whiteSpace=wrap;html=1;aspect=fixed;rounded=0;strokeWidth=2;strokeColor=none;gradientDirection=north;fillColor=#F5F3F0;" vertex="1" parent="1">
          <mxGeometry x="17" y="233" width="795" height="795" as="geometry" />
        </mxCell>
        <mxCell id="PB8nC3DUvfMvwmevtk14-12" style="edgeStyle=orthogonalEdgeStyle;rounded=0;orthogonalLoop=1;jettySize=auto;html=1;entryX=0.5;entryY=0;entryDx=0;entryDy=0;fontFamily=Georgia;strokeWidth=2;" parent="1" source="PB8nC3DUvfMvwmevtk14-13" target="PB8nC3DUvfMvwmevtk14-15" edge="1">
          <mxGeometry relative="1" as="geometry" />
        </mxCell>
        <mxCell id="PB8nC3DUvfMvwmevtk14-13" value="Začetek" style="rounded=1;whiteSpace=wrap;html=1;fontFamily=Georgia;strokeWidth=2;fillColor=#f5f5f5;strokeColor=#666666;fontColor=#333333;" parent="1" vertex="1">
          <mxGeometry x="230" y="65" width="120" height="60" as="geometry" />
        </mxCell>
        <mxCell id="PB8nC3DUvfMvwmevtk14-14" style="edgeStyle=orthogonalEdgeStyle;rounded=0;orthogonalLoop=1;jettySize=auto;html=1;strokeWidth=2;fontFamily=Georgia;" parent="1" source="PB8nC3DUvfMvwmevtk14-15" edge="1">
          <mxGeometry relative="1" as="geometry">
            <mxPoint x="290" y="265" as="targetPoint" />
          </mxGeometry>
        </mxCell>
        <mxCell id="PB8nC3DUvfMvwmevtk14-15" value="Komentar" style="shape=parallelogram;perimeter=parallelogramPerimeter;whiteSpace=wrap;html=1;fixedSize=1;strokeWidth=2;fontFamily=Georgia;fillColor=#f8cecc;strokeColor=#b85450;rounded=1;" parent="1" vertex="1">
          <mxGeometry x="230" y="165" width="120" height="60" as="geometry" />
        </mxCell>
        <mxCell id="PB8nC3DUvfMvwmevtk14-27" style="edgeStyle=orthogonalEdgeStyle;rounded=0;orthogonalLoop=1;jettySize=auto;html=1;entryX=0.5;entryY=0;entryDx=0;entryDy=0;strokeWidth=2;" parent="1" source="PB8nC3DUvfMvwmevtk14-17" target="PB8nC3DUvfMvwmevtk14-24" edge="1">
          <mxGeometry relative="1" as="geometry" />
        </mxCell>
        <mxCell id="PB8nC3DUvfMvwmevtk14-17" value="prvoStevilo, drugoStevilo" style="shape=parallelogram;perimeter=parallelogramPerimeter;whiteSpace=wrap;html=1;fixedSize=1;strokeWidth=2;fontFamily=Georgia;fillColor=#f8cecc;strokeColor=#b85450;rounded=1;" parent="1" vertex="1">
          <mxGeometry x="230" y="365" width="120" height="60" as="geometry" />
        </mxCell>
        <mxCell id="PB8nC3DUvfMvwmevtk14-26" style="edgeStyle=orthogonalEdgeStyle;rounded=0;orthogonalLoop=1;jettySize=auto;html=1;entryX=0.5;entryY=0;entryDx=0;entryDy=0;strokeWidth=2;" parent="1" source="PB8nC3DUvfMvwmevtk14-23" target="PB8nC3DUvfMvwmevtk14-17" edge="1">
          <mxGeometry relative="1" as="geometry" />
        </mxCell>
        <mxCell id="PB8nC3DUvfMvwmevtk14-23" value="operacija" style="shape=parallelogram;perimeter=parallelogramPerimeter;whiteSpace=wrap;html=1;fixedSize=1;strokeWidth=2;fontFamily=Georgia;fillColor=#f8cecc;strokeColor=#b85450;rounded=1;" parent="1" vertex="1">
          <mxGeometry x="230" y="265" width="120" height="60" as="geometry" />
        </mxCell>
        <mxCell id="PB8nC3DUvfMvwmevtk14-33" style="edgeStyle=orthogonalEdgeStyle;rounded=0;orthogonalLoop=1;jettySize=auto;html=1;entryX=0;entryY=0.5;entryDx=0;entryDy=0;strokeWidth=2;" parent="1" source="PB8nC3DUvfMvwmevtk14-24" target="PB8nC3DUvfMvwmevtk14-29" edge="1">
          <mxGeometry relative="1" as="geometry" />
        </mxCell>
        <mxCell id="PB8nC3DUvfMvwmevtk14-41" style="edgeStyle=orthogonalEdgeStyle;rounded=0;orthogonalLoop=1;jettySize=auto;html=1;entryX=0.5;entryY=0;entryDx=0;entryDy=0;strokeWidth=2;" parent="1" source="PB8nC3DUvfMvwmevtk14-24" target="PB8nC3DUvfMvwmevtk14-36" edge="1">
          <mxGeometry relative="1" as="geometry" />
        </mxCell>
        <mxCell id="PB8nC3DUvfMvwmevtk14-24" value="+" style="rhombus;whiteSpace=wrap;html=1;strokeWidth=2;rounded=1;" parent="1" vertex="1">
          <mxGeometry x="250" y="465" width="80" height="80" as="geometry" />
        </mxCell>
        <mxCell id="PB8nC3DUvfMvwmevtk14-69" style="edgeStyle=orthogonalEdgeStyle;rounded=0;orthogonalLoop=1;jettySize=auto;html=1;entryX=1;entryY=0.5;entryDx=0;entryDy=0;strokeWidth=2;" parent="1" source="PB8nC3DUvfMvwmevtk14-28" target="PB8nC3DUvfMvwmevtk14-60" edge="1">
          <mxGeometry relative="1" as="geometry">
            <Array as="points">
              <mxPoint x="750" y="505" />
              <mxPoint x="750" y="955" />
            </Array>
          </mxGeometry>
        </mxCell>
        <mxCell id="PB8nC3DUvfMvwmevtk14-28" value="Vsota" style="shape=parallelogram;perimeter=parallelogramPerimeter;whiteSpace=wrap;html=1;fixedSize=1;strokeWidth=2;fontFamily=Georgia;fillColor=#f8cecc;strokeColor=#b85450;rounded=1;" parent="1" vertex="1">
          <mxGeometry x="550" y="475" width="120" height="60" as="geometry" />
        </mxCell>
        <mxCell id="PB8nC3DUvfMvwmevtk14-32" style="edgeStyle=orthogonalEdgeStyle;rounded=0;orthogonalLoop=1;jettySize=auto;html=1;strokeWidth=2;" parent="1" source="PB8nC3DUvfMvwmevtk14-29" target="PB8nC3DUvfMvwmevtk14-28" edge="1">
          <mxGeometry relative="1" as="geometry" />
        </mxCell>
        <mxCell id="PB8nC3DUvfMvwmevtk14-29" value="vsota = prvoStevilo + drugoStevilo" style="rounded=0;whiteSpace=wrap;html=1;strokeWidth=2;fontFamily=Georgia;fillColor=#ffe6cc;strokeColor=#d79b00;" parent="1" vertex="1">
          <mxGeometry x="380" y="475" width="120" height="60" as="geometry" />
        </mxCell>
        <mxCell id="PB8nC3DUvfMvwmevtk14-34" value="T" style="text;html=1;fillColor=#d5e8d4;align=center;verticalAlign=middle;whiteSpace=wrap;rounded=0;" parent="1" vertex="1">
          <mxGeometry x="340" y="481" width="20" height="20" as="geometry" />
        </mxCell>
        <mxCell id="PB8nC3DUvfMvwmevtk14-35" style="edgeStyle=orthogonalEdgeStyle;rounded=0;orthogonalLoop=1;jettySize=auto;html=1;entryX=0;entryY=0.5;entryDx=0;entryDy=0;strokeWidth=2;" parent="1" source="PB8nC3DUvfMvwmevtk14-36" target="PB8nC3DUvfMvwmevtk14-39" edge="1">
          <mxGeometry relative="1" as="geometry" />
        </mxCell>
        <mxCell id="PB8nC3DUvfMvwmevtk14-54" style="edgeStyle=orthogonalEdgeStyle;rounded=0;orthogonalLoop=1;jettySize=auto;html=1;entryX=0.5;entryY=0;entryDx=0;entryDy=0;strokeWidth=2;" parent="1" source="PB8nC3DUvfMvwmevtk14-36" target="PB8nC3DUvfMvwmevtk14-43" edge="1">
          <mxGeometry relative="1" as="geometry" />
        </mxCell>
        <mxCell id="PB8nC3DUvfMvwmevtk14-36" value="–" style="rhombus;whiteSpace=wrap;html=1;strokeWidth=2;rounded=1;" parent="1" vertex="1">
          <mxGeometry x="250" y="575" width="80" height="80" as="geometry" />
        </mxCell>
        <mxCell id="PB8nC3DUvfMvwmevtk14-70" style="edgeStyle=orthogonalEdgeStyle;rounded=0;orthogonalLoop=1;jettySize=auto;html=1;strokeWidth=2;" parent="1" source="PB8nC3DUvfMvwmevtk14-37" edge="1">
          <mxGeometry relative="1" as="geometry">
            <mxPoint x="750" y="615" as="targetPoint" />
          </mxGeometry>
        </mxCell>
        <mxCell id="PB8nC3DUvfMvwmevtk14-37" value="Razlika" style="shape=parallelogram;perimeter=parallelogramPerimeter;whiteSpace=wrap;html=1;fixedSize=1;strokeWidth=2;fontFamily=Georgia;fillColor=#f8cecc;strokeColor=#b85450;rounded=1;" parent="1" vertex="1">
          <mxGeometry x="550" y="585" width="120" height="60" as="geometry" />
        </mxCell>
        <mxCell id="PB8nC3DUvfMvwmevtk14-38" style="edgeStyle=orthogonalEdgeStyle;rounded=0;orthogonalLoop=1;jettySize=auto;html=1;strokeWidth=2;" parent="1" source="PB8nC3DUvfMvwmevtk14-39" target="PB8nC3DUvfMvwmevtk14-37" edge="1">
          <mxGeometry relative="1" as="geometry" />
        </mxCell>
        <mxCell id="PB8nC3DUvfMvwmevtk14-39" value="razlika = prvoStevilo – drugoStevilo" style="rounded=0;whiteSpace=wrap;html=1;strokeWidth=2;fontFamily=Georgia;fillColor=#ffe6cc;strokeColor=#d79b00;" parent="1" vertex="1">
          <mxGeometry x="380" y="585" width="120" height="60" as="geometry" />
        </mxCell>
        <mxCell id="PB8nC3DUvfMvwmevtk14-40" value="T" style="text;html=1;fillColor=#d5e8d4;align=center;verticalAlign=middle;whiteSpace=wrap;rounded=0;" parent="1" vertex="1">
          <mxGeometry x="340" y="591" width="20" height="20" as="geometry" />
        </mxCell>
        <mxCell id="PB8nC3DUvfMvwmevtk14-42" style="edgeStyle=orthogonalEdgeStyle;rounded=0;orthogonalLoop=1;jettySize=auto;html=1;entryX=0;entryY=0.5;entryDx=0;entryDy=0;strokeWidth=2;" parent="1" source="PB8nC3DUvfMvwmevtk14-43" target="PB8nC3DUvfMvwmevtk14-46" edge="1">
          <mxGeometry relative="1" as="geometry" />
        </mxCell>
        <mxCell id="PB8nC3DUvfMvwmevtk14-55" style="edgeStyle=orthogonalEdgeStyle;rounded=0;orthogonalLoop=1;jettySize=auto;html=1;entryX=0.5;entryY=0;entryDx=0;entryDy=0;strokeWidth=2;" parent="1" source="PB8nC3DUvfMvwmevtk14-43" target="PB8nC3DUvfMvwmevtk14-49" edge="1">
          <mxGeometry relative="1" as="geometry" />
        </mxCell>
        <mxCell id="PB8nC3DUvfMvwmevtk14-43" value="*" style="rhombus;whiteSpace=wrap;html=1;strokeWidth=2;rounded=1;" parent="1" vertex="1">
          <mxGeometry x="250" y="685" width="80" height="80" as="geometry" />
        </mxCell>
        <mxCell id="PB8nC3DUvfMvwmevtk14-71" style="edgeStyle=orthogonalEdgeStyle;rounded=0;orthogonalLoop=1;jettySize=auto;html=1;strokeWidth=2;" parent="1" source="PB8nC3DUvfMvwmevtk14-44" edge="1">
          <mxGeometry relative="1" as="geometry">
            <mxPoint x="750" y="725" as="targetPoint" />
          </mxGeometry>
        </mxCell>
        <mxCell id="PB8nC3DUvfMvwmevtk14-44" value="Zmnožek" style="shape=parallelogram;perimeter=parallelogramPerimeter;whiteSpace=wrap;html=1;fixedSize=1;strokeWidth=2;fontFamily=Georgia;fillColor=#f8cecc;strokeColor=#b85450;rounded=1;" parent="1" vertex="1">
          <mxGeometry x="550" y="695" width="120" height="60" as="geometry" />
        </mxCell>
        <mxCell id="PB8nC3DUvfMvwmevtk14-45" style="edgeStyle=orthogonalEdgeStyle;rounded=0;orthogonalLoop=1;jettySize=auto;html=1;strokeWidth=2;" parent="1" source="PB8nC3DUvfMvwmevtk14-46" target="PB8nC3DUvfMvwmevtk14-44" edge="1">
          <mxGeometry relative="1" as="geometry" />
        </mxCell>
        <mxCell id="PB8nC3DUvfMvwmevtk14-46" value="zmnožek = prvoStevilo * drugoStevilo" style="rounded=0;whiteSpace=wrap;html=1;strokeWidth=2;fontFamily=Georgia;fillColor=#ffe6cc;strokeColor=#d79b00;" parent="1" vertex="1">
          <mxGeometry x="380" y="695" width="120" height="60" as="geometry" />
        </mxCell>
        <mxCell id="PB8nC3DUvfMvwmevtk14-47" value="T" style="text;html=1;fillColor=#d5e8d4;align=center;verticalAlign=middle;whiteSpace=wrap;rounded=0;" parent="1" vertex="1">
          <mxGeometry x="340" y="701" width="20" height="20" as="geometry" />
        </mxCell>
        <mxCell id="PB8nC3DUvfMvwmevtk14-48" style="edgeStyle=orthogonalEdgeStyle;rounded=0;orthogonalLoop=1;jettySize=auto;html=1;entryX=0;entryY=0.5;entryDx=0;entryDy=0;strokeWidth=2;" parent="1" source="PB8nC3DUvfMvwmevtk14-49" target="PB8nC3DUvfMvwmevtk14-52" edge="1">
          <mxGeometry relative="1" as="geometry" />
        </mxCell>
        <mxCell id="PB8nC3DUvfMvwmevtk14-62" style="edgeStyle=orthogonalEdgeStyle;rounded=0;orthogonalLoop=1;jettySize=auto;html=1;entryX=0.5;entryY=0;entryDx=0;entryDy=0;strokeWidth=2;" parent="1" source="PB8nC3DUvfMvwmevtk14-49" edge="1">
          <mxGeometry relative="1" as="geometry">
            <mxPoint x="290" y="915" as="targetPoint" />
          </mxGeometry>
        </mxCell>
        <mxCell id="PB8nC3DUvfMvwmevtk14-49" value="/" style="rhombus;whiteSpace=wrap;html=1;strokeWidth=2;rounded=1;" parent="1" vertex="1">
          <mxGeometry x="250" y="795" width="80" height="80" as="geometry" />
        </mxCell>
        <mxCell id="PB8nC3DUvfMvwmevtk14-72" style="edgeStyle=orthogonalEdgeStyle;rounded=0;orthogonalLoop=1;jettySize=auto;html=1;strokeWidth=2;" parent="1" source="PB8nC3DUvfMvwmevtk14-50" edge="1">
          <mxGeometry relative="1" as="geometry">
            <mxPoint x="750" y="835" as="targetPoint" />
          </mxGeometry>
        </mxCell>
        <mxCell id="PB8nC3DUvfMvwmevtk14-50" value="Količnik" style="shape=parallelogram;perimeter=parallelogramPerimeter;whiteSpace=wrap;html=1;fixedSize=1;strokeWidth=2;fontFamily=Georgia;fillColor=#f8cecc;strokeColor=#b85450;rounded=1;" parent="1" vertex="1">
          <mxGeometry x="550" y="805" width="120" height="60" as="geometry" />
        </mxCell>
        <mxCell id="PB8nC3DUvfMvwmevtk14-51" style="edgeStyle=orthogonalEdgeStyle;rounded=0;orthogonalLoop=1;jettySize=auto;html=1;strokeWidth=2;" parent="1" source="PB8nC3DUvfMvwmevtk14-52" target="PB8nC3DUvfMvwmevtk14-50" edge="1">
          <mxGeometry relative="1" as="geometry" />
        </mxCell>
        <mxCell id="PB8nC3DUvfMvwmevtk14-52" value="količnik = prvoStevilo / drugoStevilo" style="rounded=0;whiteSpace=wrap;html=1;strokeWidth=2;fontFamily=Georgia;fillColor=#ffe6cc;strokeColor=#d79b00;" parent="1" vertex="1">
          <mxGeometry x="380" y="805" width="120" height="60" as="geometry" />
        </mxCell>
        <mxCell id="PB8nC3DUvfMvwmevtk14-53" value="T" style="text;html=1;fillColor=#d5e8d4;align=center;verticalAlign=middle;whiteSpace=wrap;rounded=0;" parent="1" vertex="1">
          <mxGeometry x="340" y="811" width="20" height="20" as="geometry" />
        </mxCell>
        <mxCell id="PB8nC3DUvfMvwmevtk14-56" value="F" style="text;html=1;fillColor=#d5e8d4;align=center;verticalAlign=middle;whiteSpace=wrap;rounded=0;" parent="1" vertex="1">
          <mxGeometry x="300" y="545" width="20" height="20" as="geometry" />
        </mxCell>
        <mxCell id="PB8nC3DUvfMvwmevtk14-57" value="F" style="text;html=1;fillColor=#d5e8d4;align=center;verticalAlign=middle;whiteSpace=wrap;rounded=0;" parent="1" vertex="1">
          <mxGeometry x="300" y="655" width="20" height="20" as="geometry" />
        </mxCell>
        <mxCell id="PB8nC3DUvfMvwmevtk14-58" value="F" style="text;html=1;fillColor=#d5e8d4;align=center;verticalAlign=middle;whiteSpace=wrap;rounded=0;" parent="1" vertex="1">
          <mxGeometry x="300" y="765" width="20" height="20" as="geometry" />
        </mxCell>
        <mxCell id="PB8nC3DUvfMvwmevtk14-66" style="edgeStyle=orthogonalEdgeStyle;rounded=0;orthogonalLoop=1;jettySize=auto;html=1;strokeWidth=2;" parent="1" source="PB8nC3DUvfMvwmevtk14-60" edge="1">
          <mxGeometry relative="1" as="geometry">
            <mxPoint x="290" y="245" as="targetPoint" />
            <Array as="points">
              <mxPoint x="100" y="955" />
              <mxPoint x="100" y="245" />
              <mxPoint x="270" y="245" />
            </Array>
          </mxGeometry>
        </mxCell>
        <mxCell id="PB8nC3DUvfMvwmevtk14-68" style="edgeStyle=orthogonalEdgeStyle;rounded=0;orthogonalLoop=1;jettySize=auto;html=1;exitX=0.5;exitY=1;exitDx=0;exitDy=0;entryX=0.5;entryY=0;entryDx=0;entryDy=0;strokeWidth=2;" parent="1" source="PB8nC3DUvfMvwmevtk14-60" target="PB8nC3DUvfMvwmevtk14-67" edge="1">
          <mxGeometry relative="1" as="geometry" />
        </mxCell>
        <mxCell id="PB8nC3DUvfMvwmevtk14-60" value="Nadaljuj?" style="rhombus;whiteSpace=wrap;html=1;rounded=1;strokeWidth=2;" parent="1" vertex="1">
          <mxGeometry x="250" y="915" width="80" height="80" as="geometry" />
        </mxCell>
        <mxCell id="PB8nC3DUvfMvwmevtk14-63" value="T" style="text;html=1;fillColor=#d5e8d4;align=center;verticalAlign=middle;whiteSpace=wrap;rounded=0;" parent="1" vertex="1">
          <mxGeometry x="220" y="930" width="20" height="20" as="geometry" />
        </mxCell>
        <mxCell id="PB8nC3DUvfMvwmevtk14-64" value="F" style="text;html=1;fillColor=#d5e8d4;align=center;verticalAlign=middle;whiteSpace=wrap;rounded=0;" parent="1" vertex="1">
          <mxGeometry x="300" y="995" width="20" height="20" as="geometry" />
        </mxCell>
        <mxCell id="PB8nC3DUvfMvwmevtk14-67" value="Konec" style="rounded=1;whiteSpace=wrap;html=1;fontFamily=Georgia;strokeWidth=2;fillColor=#f5f5f5;strokeColor=#666666;fontColor=#333333;" parent="1" vertex="1">
          <mxGeometry x="230" y="1045" width="120" height="60" as="geometry" />
        </mxCell>
        <mxCell id="EflzVE0-cOWdaxuLqOuZ-2" value="Območje ponavljanja ukazov — zanka." style="text;html=1;strokeColor=none;fillColor=none;align=left;verticalAlign=middle;whiteSpace=wrap;rounded=0;fontFamily=Georgia;fontSize=18;" vertex="1" parent="1">
          <mxGeometry x="400" y="240" width="370" height="20" as="geometry" />
        </mxCell>
      </root>
    </mxGraphModel>
  </diagram>
</mxfile>
